<?xml version="1.0" standalone="no"?>
<!DOCTYPE svg PUBLIC "-//W3C//DTD SVG 20010904//EN"
 "http://www.w3.org/TR/2001/REC-SVG-20010904/DTD/svg10.dtd">
<svg version="1.0" xmlns="http://www.w3.org/2000/svg"
 width="307.000000pt" height="164.000000pt" viewBox="0 0 307.000000 164.000000"
 preserveAspectRatio="xMidYMid meet">

<g transform="translate(0.000000,164.000000) scale(0.100000,-0.100000)"
fill="#000000" stroke="none">
<path d="M1149 1610 c-183 -28 -462 -187 -657 -375 -122 -116 -150 -185 -97
-238 36 -35 83 -44 313 -62 270 -20 332 -35 368 -90 13 -20 14 -31 5 -55 -46
-133 -414 -374 -690 -452 -108 -31 -241 -31 -298 -1 -22 12 -51 34 -62 49 -28
36 -27 20 3 -31 44 -74 127 -115 235 -115 203 0 508 160 742 390 75 74 100
105 110 138 11 39 10 45 -8 70 -54 73 -142 98 -406 113 -252 14 -297 28 -297
94 0 46 46 104 143 181 233 185 529 314 722 314 79 0 140 -23 180 -66 28 -30
32 -26 11 14 -49 93 -178 143 -317 122z"/>
<path d="M2494 1488 c-184 -217 -338 -413 -419 -535 -26 -40 -55 -75 -64 -77
-9 -2 -32 -8 -51 -11 -75 -15 -144 -71 -170 -140 -9 -25 -6 -23 40 18 43 39
147 92 158 82 2 -2 -8 -21 -21 -42 -34 -53 -106 -198 -124 -248 -53 -149 -27
-235 72 -235 60 1 138 42 269 141 l28 22 -7 -50 c-17 -125 54 -123 189 5 29
29 46 39 41 27 -4 -11 -10 -43 -12 -70 -4 -39 -1 -54 11 -64 23 -19 62 9 220
159 146 137 217 189 326 238 62 28 68 32 36 27 -96 -16 -239 -108 -431 -277
-55 -48 -104 -88 -109 -88 -13 0 3 89 25 140 11 25 38 72 60 106 45 69 46 74
19 74 -12 0 -34 -21 -61 -62 -92 -135 -217 -258 -263 -258 -62 0 62 242 176
345 93 84 177 108 165 49 -3 -19 -1 -22 8 -14 21 18 38 68 31 95 -5 20 -12 25
-39 25 -70 0 -247 -156 -320 -283 -43 -73 -109 -124 -266 -205 -87 -45 -116
-49 -135 -20 -24 39 45 254 127 394 l52 89 102 17 c146 24 150 26 34 20 -95
-5 -104 -4 -98 12 8 19 218 319 379 539 59 81 106 147 104 147 -2 0 -39 -42
-82 -92z"/>
<path d="M1942 1514 c-136 -116 -297 -473 -395 -874 l-23 -95 -100 -89 -99
-89 -3 36 c-5 55 13 105 68 192 27 43 50 83 50 87 0 4 -8 8 -18 8 -12 0 -37
-27 -67 -71 -26 -39 -87 -111 -135 -160 -68 -70 -92 -89 -114 -89 -27 0 -28 2
-22 38 16 89 122 255 209 326 79 65 147 80 147 32 1 -21 1 -21 20 3 35 41 24
101 -19 101 -89 0 -294 -200 -362 -355 -27 -61 -41 -140 -29 -170 19 -51 75
-29 179 69 32 31 51 43 47 31 -4 -11 -10 -43 -13 -70 -4 -40 -2 -54 12 -65 22
-18 40 -7 149 93 47 42 86 77 88 77 2 0 1 -30 -3 -67 -12 -107 8 -183 49 -183
38 0 126 76 192 165 18 25 15 22 -86 -58 -39 -32 -76 -57 -81 -57 -17 0 -25
66 -17 143 6 64 13 81 59 152 172 266 268 460 379 767 45 125 52 160 40 192
-11 28 -57 19 -102 -20z m38 -53 c0 -38 -67 -230 -136 -389 -77 -181 -243
-480 -244 -440 0 28 56 237 90 331 62 176 194 442 248 500 33 35 42 34 42 -2z"/>
<path d="M1714 236 c-6 -7 -17 -23 -23 -37 -10 -20 -10 -21 1 -8 16 20 36 4
30 -24 -2 -10 0 -26 4 -35 4 -9 6 -25 5 -34 -1 -11 4 -18 14 -18 14 0 16 6 10
37 -4 21 -10 39 -15 41 -4 2 -6 11 -4 20 2 9 1 29 -3 43 -6 21 -11 24 -19 15z"/>
<path d="M1894 236 c10 -8 15 -19 11 -25 -3 -6 1 -11 9 -11 29 0 14 32 -19 43
-19 7 -19 6 -1 -7z"/>
<path d="M2066 241 c17 -4 36 -11 42 -15 7 -4 12 -3 12 2 0 13 -26 22 -58 21
-26 -1 -26 -1 4 -8z"/>
<path d="M2301 233 c1 -10 -1 -26 -5 -35 -5 -10 -6 -23 -3 -30 3 -7 6 -3 6 8
1 12 9 28 18 35 12 10 15 10 9 1 -8 -14 29 -82 45 -82 6 0 8 -3 5 -8 -6 -11
22 -47 31 -38 4 4 2 11 -5 15 -7 4 -14 18 -15 30 -1 13 -11 34 -24 47 -12 13
-20 24 -17 24 2 0 -3 11 -12 25 -19 29 -36 33 -33 8z m64 -73 c10 -11 16 -20
13 -20 -3 0 -13 9 -23 20 -10 11 -16 20 -13 20 3 0 13 -9 23 -20z"/>
<path d="M2725 241 c3 -5 1 -12 -5 -16 -5 -3 -10 -16 -10 -28 0 -16 3 -18 9
-9 6 10 21 -3 53 -47 44 -60 58 -66 58 -28 0 16 -3 17 -14 8 -11 -9 -16 -9
-22 0 -5 8 -3 9 6 4 16 -10 13 -2 -30 67 -19 32 -39 58 -43 58 -5 0 -6 -4 -2
-9z m56 -83 c15 -28 5 -21 -21 15 -15 20 -17 27 -6 18 9 -8 22 -23 27 -33z"/>
<path d="M1834 225 c3 -8 2 -15 -2 -15 -9 0 -36 -120 -28 -127 14 -14 26 12
21 45 -3 25 -2 31 3 18 8 -19 9 -19 14 2 4 12 2 25 -3 28 -5 3 -9 11 -9 17 0
8 3 8 9 -2 6 -9 10 -4 13 18 3 22 1 31 -10 31 -8 0 -12 -6 -8 -15z"/>
<path d="M1992 224 c-12 -8 -20 -19 -17 -24 3 -4 0 -10 -7 -12 -6 -2 -11 -18
-11 -36 0 -44 36 -73 88 -70 44 2 55 11 55 46 0 33 -20 27 -26 -8 -6 -26 -11
-30 -41 -30 -26 0 -36 5 -40 20 -3 11 -10 17 -16 13 -7 -4 -8 0 -2 13 4 10 10
30 13 44 3 14 14 33 25 43 25 21 9 23 -21 1z"/>
<path d="M2167 208 c-3 -18 -9 -48 -13 -65 -5 -27 -3 -33 11 -33 14 0 16 6 11
38 -5 29 -4 34 5 22 9 -13 10 -13 5 2 -3 10 -1 20 4 23 15 9 12 45 -4 45 -7 0
-16 -14 -19 -32z"/>
<path d="M2431 224 c0 -11 3 -14 6 -6 3 7 2 16 -1 19 -3 4 -6 -2 -5 -13z"/>
<path d="M2516 207 c-4 -21 -4 -47 0 -59 4 -12 2 -18 -4 -14 -5 3 -12 -4 -16
-17 -8 -32 -8 -34 9 -34 11 0 13 6 9 20 -3 11 -2 17 3 14 10 -6 38 111 29 121
-3 3 -6 -6 -7 -19 l-1 -24 -7 25 c-7 23 -8 22 -15 -13z"/>
<path d="M2626 198 c-3 -24 -8 -54 -11 -68 -5 -22 -4 -22 4 -5 8 18 10 18 10
2 1 -10 -6 -20 -14 -23 -19 -8 -20 -24 -1 -24 19 0 29 33 21 73 -4 19 -3 27 2
20 6 -9 12 0 20 27 9 35 8 40 -7 40 -13 0 -19 -11 -24 -42z"/>
<path d="M2847 233 c-4 -3 -7 -16 -6 -27 0 -19 1 -19 10 3 10 24 8 36 -4 24z"/>
<path d="M2939 218 c-6 -13 -23 -43 -37 -68 -14 -25 -19 -39 -12 -32 8 6 23
13 35 13 16 1 17 2 3 6 -10 2 -18 6 -18 8 0 7 42 75 47 75 2 0 1 -4 -2 -10 -3
-5 -3 -15 1 -21 4 -7 9 -30 11 -52 4 -48 9 -57 31 -57 15 1 15 2 -1 14 -10 8
-14 16 -8 17 12 5 -17 129 -30 129 -5 0 -14 -10 -20 -22z"/>
<path d="M2415 160 c-4 -23 -5 -43 -2 -46 2 -3 7 14 11 37 4 23 5 44 2 46 -2
2 -7 -14 -11 -37z"/>
<path d="M1878 171 c-20 -20 -24 -41 -7 -41 5 0 8 -4 5 -9 -7 -10 20 -48 28
-40 4 3 0 22 -9 41 -14 34 -13 37 8 51 15 11 17 16 7 16 -8 0 -23 -8 -32 -18z"/>
<path d="M2832 160 c0 -14 2 -19 5 -12 2 6 2 18 0 25 -3 6 -5 1 -5 -13z"/>
<path d="M1658 148 c-22 -34 -42 -74 -31 -63 14 15 55 85 50 85 -3 0 -11 -10
-19 -22z"/>
<path d="M2701 154 c0 -11 3 -14 6 -6 3 7 2 16 -1 19 -3 4 -6 -2 -5 -13z"/>
<path d="M2281 140 c-1 -8 -4 -26 -7 -40 -5 -22 -4 -23 6 -7 6 10 9 28 7 40
-2 12 -5 15 -6 7z"/>
<path d="M2692 110 c0 -14 2 -19 5 -12 2 6 2 18 0 25 -3 6 -5 1 -5 -13z"/>
<path d="M2140 92 c0 -5 21 -10 47 -11 26 -1 45 0 42 2 -10 9 -89 17 -89 9z"/>
</g>
</svg>
